<?xml version="1.0" encoding="UTF-8"?>
<svg width="27px" height="40px" viewBox="0 0 27 40" version="1.1" xmlns="http://www.w3.org/2000/svg" xmlns:xlink="http://www.w3.org/1999/xlink">
    <title>MathIcon</title>
    <defs>
        <linearGradient x1="50%" y1="50%" x2="50%" y2="100%" id="linearGradient-1">
            <stop stop-color="#9BE4FD" offset="0%"></stop>
            <stop stop-color="#62C5FA" offset="100%"></stop>
        </linearGradient>
        <rect id="path-2" x="0" y="0" width="1440" height="125"></rect>
        <filter x="-1.6%" y="-15.2%" width="103.2%" height="136.8%" filterUnits="objectBoundingBox" id="filter-3">
            <feOffset dx="0" dy="4" in="SourceAlpha" result="shadowOffsetOuter1"></feOffset>
            <feGaussianBlur stdDeviation="7" in="shadowOffsetOuter1" result="shadowBlurOuter1"></feGaussianBlur>
            <feColorMatrix values="0 0 0 0 0   0 0 0 0 0   0 0 0 0 0  0 0 0 0.2 0" type="matrix" in="shadowBlurOuter1"></feColorMatrix>
        </filter>
        <polygon id="path-4" points="0.0001 0.0005 24.92 0.0005 24.92 39.9999581 0.0001 39.9999581"></polygon>
    </defs>
    <g id="Prototype" stroke="none" stroke-width="1" fill="none" fill-rule="evenodd">
        <g id="Desktop-HD" transform="translate(-1241.000000, -43.000000)">
            <g id="Navbar" transform="translate(0.090909, 0.000000)">
                <g id="Background">
                    <use fill="black" fill-opacity="1" filter="url(#filter-3)" xlink:href="#path-2"></use>
                    <use fill="url(#linearGradient-1)" fill-rule="evenodd" xlink:href="#path-2"></use>
                </g>
                <g id="NavItems" transform="translate(631.909091, 43.000000)">
                    <g id="MathIcon" transform="translate(610.000000, 0.000000)">
                        <mask id="mask-5" fill="white">
                            <use xlink:href="#path-4"></use>
                        </mask>
                        <g id="Clip-2"></g>
                        <path d="M24.9201,6.2985 L24.9201,3.1495 C24.9201,1.4175 23.7101,0.0005 22.2311,0.0005 L4.9201,0.0005 C4.3421,0.0005 3.8081,0.2175 3.3681,0.5835 C3.2271,0.6905 3.0921,0.8155 2.9691,0.9605 L0.7111,3.6045 C-0.2369,4.7145 -0.2369,6.5305 0.7111,7.6415 L11.3201,20.0645 L0.7111,32.4865 C-0.2369,33.5965 -0.2369,35.4135 0.7111,36.5235 L2.9691,39.1675 C3.6191,39.9285 4.5521,40.1675 5.3811,39.8855 L22.2311,39.8855 C23.7101,39.8855 24.9201,38.4675 24.9201,36.7355 L24.9201,33.5865 C24.9201,31.8535 23.7101,30.4375 22.2311,30.4375 L13.8741,30.4375 L18.7461,24.7325 C18.7471,24.7305 18.7491,24.7295 18.7501,24.7275 L21.0091,22.0835 C21.4831,21.5275 21.7201,20.7965 21.7201,20.0645 C21.7201,19.3325 21.4831,18.6005 21.0091,18.0455 L18.7501,15.4005 C18.7491,15.3985 18.7471,15.3985 18.7461,15.3965 L13.6661,9.4485 L22.2311,9.4485 C23.7101,9.4485 24.9201,8.0305 24.9201,6.2985" id="Fill-1" fill="#FFFFFF" mask="url(#mask-5)"></path>
                    </g>
                </g>
            </g>
        </g>
    </g>
</svg>