<svg xmlns="http://www.w3.org/2000/svg" viewBox="0 0 1732.09 258.38"><path d="M99.24,122.5A11.84,11.84,0,0,1,103,137l23.8,17.59a45.09,45.09,0,0,0-10.83-61.11l-10.27-7.6L85.86,112.62Z" style="fill:#fff"/><path d="M123.9,158.41l-23.8-17.59a11.82,11.82,0,0,1-14.91.69l-13.38-9.89L52,158.39,62.3,166A45.09,45.09,0,0,0,123.9,158.41Z" style="fill:#fff"/><path d="M65.63,112.35A11.81,11.81,0,0,1,82,109.77L101.8,83,71.92,60.91a45.11,45.11,0,0,0-53.63,72.54l29.89,22.09L68,128.78A11.83,11.83,0,0,1,65.63,112.35Z" style="fill:#fff"/><path d="M96.4,126.35,79.17,113.62A7,7,0,0,0,71,125L88,137.67a7,7,0,0,0,8.37-11.32Z" style="fill:#fff"/><path d="M234.47,29.43A80,80,0,0,1,260.35,46L242.68,66.43A68.67,68.67,0,0,0,224,55.31,56.06,56.06,0,0,0,204,51.78q-11.62,0-18.56,4.92t-6.95,14a17.3,17.3,0,0,0,2.91,10.36q2.9,4,10.22,7.57a169.12,169.12,0,0,0,22,8.09q26,8.33,38.9,20.58t12.88,35q0,16.17-8.09,28.42t-23.49,19.19q-15.4,6.94-36.11,7t-36.88-6.57a84.64,84.64,0,0,1-27.78-17.93l18.94-21a77.48,77.48,0,0,0,21,13,62.37,62.37,0,0,0,23.75,4.42q13.64,0,21.84-6.31t8.21-17.68a22,22,0,0,0-2.9-11.75q-2.91-4.67-10-8.46t-20.46-7.83q-28.54-8.83-40.79-21.21T140.38,73.25a44.16,44.16,0,0,1,7.83-25.89,50.22,50.22,0,0,1,21.72-17.3Q183.82,24,201.51,24,220.44,24,234.47,29.43Z" style="fill:#fff"/><path d="M326,11.62v191.2H290.16V15.66ZM407.35,69,364.67,127.8l46.47,75H370.47l-43.19-73.25L370.22,69Z" style="fill:#fff"/><path d="M460.52,5.94a19.92,19.92,0,0,1,6.18,15,19.93,19.93,0,0,1-6.18,15q-6.19,5.94-15.79,5.94T429.07,36A20.13,20.13,0,0,1,423,21a20.12,20.12,0,0,1,6.06-15Q435.13,0,444.73,0T460.52,5.94Zm2.4,63V202.82H427.05V69Z" style="fill:#fff"/><path d="M506.1,197.39q-9.09-9.48-9.09-26.9V15.66l35.87-4V169.48q0,8.84,7.32,8.84a15.63,15.63,0,0,0,7.07-1.52l7.33,25.51a56.62,56.62,0,0,1-23,4.55Q515.19,206.86,506.1,197.39Z" style="fill:#fff"/><path d="M580.86,197.39q-9.09-9.48-9.09-26.9V15.66l35.87-4V169.48q0,8.84,7.32,8.84A15.63,15.63,0,0,0,622,176.8l7.33,25.51a56.62,56.62,0,0,1-23,4.55Q590,206.86,580.86,197.39Z" style="fill:#fff"/><path d="M752.87,28l-4,27H685.68v45.46h55.06V127.3H685.68v48.24h67.69v27.28H648.55V28Z" style="fill:#fff"/><path d="M848.84,131.09l43.95,71.73H851.62L826.11,151l-25,51.78h-39.4l43.94-70.47L766.25,69h40.41l21,44.46L848.09,69h38.39Z" style="fill:#fff"/><path d="M1018.45,83.48q12.24,18.55,12.25,52.15,0,20.46-6.32,36.63t-18.31,25.38q-12,9.21-28.42,9.22-20.45,0-33.08-14.4v61.88l-35.87,4V69h31.57L942,84.61a49.49,49.49,0,0,1,17.81-14.77,48,48,0,0,1,21.09-4.93Q1006.19,64.91,1018.45,83.48Zm-25.14,52.41q0-24.25-5.8-34.35T969.83,91.43a23.39,23.39,0,0,0-14,4.67,42.66,42.66,0,0,0-11.24,12.51V167q8.58,13.14,22.48,13.14Q993.32,180.09,993.31,135.89Z" style="fill:#fff"/><path d="M1067.06,197.39q-9.09-9.48-9.09-26.9V15.66l35.87-4V169.48q0,8.84,7.32,8.84a15.63,15.63,0,0,0,7.07-1.52l7.33,25.51a56.62,56.62,0,0,1-23,4.55Q1076.16,206.86,1067.06,197.39Z" style="fill:#fff"/><path d="M1236,83.73Q1253,102.54,1253,135.89q0,21.21-7.7,37.25A57.53,57.53,0,0,1,1223,198q-14.54,8.83-34.22,8.84-30.06,0-47.11-18.82t-17-52.15q0-21.22,7.71-37.26a57.56,57.56,0,0,1,22.22-24.88q14.52-8.84,34.48-8.84Q1219.11,64.91,1236,83.73Zm-67.31,18.69q-6.7,10.74-6.7,33.47t6.7,33.46q6.69,10.74,20.08,10.74t20.08-10.74q6.67-10.72,6.69-33.46T1209,102.42q-6.57-10.74-20-10.73Q1175.43,91.69,1168.73,102.42Z" style="fill:#fff"/><path d="M1373.19,81.08l-13.64,20.46q-16.93-10.62-33.34-10.61-8.85,0-13.64,3.28a10.21,10.21,0,0,0-4.8,8.84,10.75,10.75,0,0,0,2.15,6.82q2.13,2.79,8.08,5.3a178.62,178.62,0,0,0,17.8,6.07q21.23,5.81,31.58,15.53t10.35,26.65a36.61,36.61,0,0,1-7.7,23.23q-7.71,9.85-20.84,15a79.32,79.32,0,0,1-29.3,5.18,87.66,87.66,0,0,1-30.81-5.18,71.12,71.12,0,0,1-23.74-14.27l17.68-19.7q16.92,13.14,35.86,13.13,10.09,0,16-3.91a12.22,12.22,0,0,0,5.94-10.74q0-5.3-2.28-8.33t-8.33-5.68a151.19,151.19,0,0,0-19-6.19q-20.21-5.55-29.93-15.79t-9.72-25.38a34.08,34.08,0,0,1,6.57-20.46q6.55-9.09,18.56-14.27t27.91-5.18Q1353,64.91,1373.19,81.08Z" style="fill:#fff"/><path d="M1434.68,5.94a19.89,19.89,0,0,1,6.19,15,19.9,19.9,0,0,1-6.19,15q-6.18,5.94-15.78,5.94T1403.24,36a20.13,20.13,0,0,1-6.06-15,20.12,20.12,0,0,1,6.06-15Q1409.3,0,1418.9,0T1434.68,5.94Zm2.4,63V202.82h-35.86V69Z" style="fill:#fff"/><path d="M1575.75,83.73q16.92,18.81,16.92,52.16,0,21.21-7.7,37.25A57.53,57.53,0,0,1,1562.74,198q-14.54,8.83-34.22,8.84-30.06,0-47.11-18.82t-17.05-52.15q0-21.22,7.71-37.26a57.56,57.56,0,0,1,22.22-24.88q14.52-8.84,34.48-8.84Q1558.82,64.91,1575.75,83.73Zm-67.31,18.69q-6.7,10.74-6.7,33.47t6.7,33.46q6.69,10.74,20.08,10.74t20.08-10.74q6.68-10.72,6.69-33.46t-6.57-33.47q-6.57-10.74-20-10.73Q1515.14,91.69,1508.44,102.42Z" style="fill:#fff"/><path d="M1722.24,75.65q9.85,10.74,9.85,29.67v97.5h-35.86V111.39q0-10.86-3.67-15.29t-11-4.41a22.25,22.25,0,0,0-13.77,4.67q-6.19,4.68-12,14v92.44H1620V69H1651l2.78,16.93a59.55,59.55,0,0,1,18.31-15.66,47.4,47.4,0,0,1,22.61-5.31Q1712.38,64.91,1722.24,75.65Z" style="fill:#fff"/></svg>